<?xml version="1.0" encoding="UTF-8" standalone="no"?>
<!DOCTYPE svg PUBLIC "-//W3C//DTD SVG 1.1//EN"
 "http://www.w3.org/Graphics/SVG/1.1/DTD/svg11.dtd">
<!-- Generated by graphviz version 9.0.0 (0)
 -->
<!-- Pages: 1 -->
<svg width="647pt" height="300pt"
 viewBox="0.00 0.00 647.32 299.60" xmlns="http://www.w3.org/2000/svg" xmlns:xlink="http://www.w3.org/1999/xlink">
<g id="graph0" class="graph" transform="scale(1 1) rotate(0) translate(4 295.6)">
<polygon fill="white" stroke="none" points="-4,4 -4,-295.6 643.32,-295.6 643.32,4 -4,4"/>
<!-- empty -->
<g id="node1" class="node">
<title>empty</title>
<ellipse fill="none" stroke="black" cx="317.39" cy="-273.6" rx="27" ry="18"/>
<text text-anchor="middle" x="317.39" y="-268.55" font-family="Times,serif" font-size="14.00">&quot;&quot;</text>
</g>
<!-- a -->
<g id="node2" class="node">
<title>a</title>
<ellipse fill="none" stroke="black" cx="235.39" cy="-201.6" rx="27" ry="18"/>
<text text-anchor="middle" x="235.39" y="-196.55" font-family="Times,serif" font-size="14.00">&quot;a&quot;</text>
</g>
<!-- empty&#45;&gt;a -->
<g id="edge1" class="edge">
<title>empty&#45;&gt;a</title>
<path fill="none" stroke="black" d="M301.19,-258.77C289.51,-248.8 273.53,-235.16 260.24,-223.81"/>
<polygon fill="black" stroke="black" points="262.59,-221.21 252.71,-217.38 258.04,-226.54 262.59,-221.21"/>
</g>
<!-- b -->
<g id="node3" class="node">
<title>b</title>
<ellipse fill="none" stroke="black" cx="399.39" cy="-201.6" rx="27" ry="18"/>
<text text-anchor="middle" x="399.39" y="-196.55" font-family="Times,serif" font-size="14.00">&quot;b&quot;</text>
</g>
<!-- empty&#45;&gt;b -->
<g id="edge2" class="edge">
<title>empty&#45;&gt;b</title>
<path fill="none" stroke="black" d="M333.59,-258.77C345.27,-248.8 361.25,-235.16 374.54,-223.81"/>
<polygon fill="black" stroke="black" points="376.74,-226.54 382.07,-217.38 372.19,-221.21 376.74,-226.54"/>
</g>
<!-- aa -->
<g id="node4" class="node">
<title>aa</title>
<ellipse fill="none" stroke="black" cx="112.39" cy="-129.6" rx="27.3" ry="18"/>
<text text-anchor="middle" x="112.39" y="-124.55" font-family="Times,serif" font-size="14.00">&quot;aa&quot;</text>
</g>
<!-- a&#45;&gt;aa -->
<g id="edge3" class="edge">
<title>a&#45;&gt;aa</title>
<path fill="none" stroke="black" d="M215.36,-189.2C195.52,-177.91 164.91,-160.49 142.22,-147.58"/>
<polygon fill="black" stroke="black" points="144.16,-144.65 133.73,-142.75 140.69,-150.73 144.16,-144.65"/>
</g>
<!-- ab -->
<g id="node5" class="node">
<title>ab</title>
<ellipse fill="none" stroke="black" cx="235.39" cy="-129.6" rx="27.81" ry="18"/>
<text text-anchor="middle" x="235.39" y="-124.55" font-family="Times,serif" font-size="14.00">&quot;ab&quot;</text>
</g>
<!-- a&#45;&gt;ab -->
<g id="edge4" class="edge">
<title>a&#45;&gt;ab</title>
<path fill="none" stroke="black" d="M235.39,-183.3C235.39,-176.01 235.39,-167.33 235.39,-159.14"/>
<polygon fill="black" stroke="black" points="238.89,-159.22 235.39,-149.22 231.89,-159.22 238.89,-159.22"/>
</g>
<!-- ba -->
<g id="node6" class="node">
<title>ba</title>
<ellipse fill="none" stroke="black" cx="399.39" cy="-129.6" rx="27.81" ry="18"/>
<text text-anchor="middle" x="399.39" y="-124.55" font-family="Times,serif" font-size="14.00">&quot;ba&quot;</text>
</g>
<!-- b&#45;&gt;ba -->
<g id="edge5" class="edge">
<title>b&#45;&gt;ba</title>
<path fill="none" stroke="black" d="M399.39,-183.3C399.39,-176.01 399.39,-167.33 399.39,-159.14"/>
<polygon fill="black" stroke="black" points="402.89,-159.22 399.39,-149.22 395.89,-159.22 402.89,-159.22"/>
</g>
<!-- bb -->
<g id="node7" class="node">
<title>bb</title>
<ellipse fill="none" stroke="black" cx="523.39" cy="-129.6" rx="28.32" ry="18"/>
<text text-anchor="middle" x="523.39" y="-124.55" font-family="Times,serif" font-size="14.00">&quot;bb&quot;</text>
</g>
<!-- b&#45;&gt;bb -->
<g id="edge6" class="edge">
<title>b&#45;&gt;bb</title>
<path fill="none" stroke="black" d="M419.59,-189.2C439.47,-177.98 470.07,-160.7 492.91,-147.81"/>
<polygon fill="black" stroke="black" points="494.48,-150.94 501.47,-142.97 491.04,-144.84 494.48,-150.94"/>
</g>
<!-- aaa -->
<g id="node8" class="node">
<title>aaa</title>
<ellipse fill="none" stroke="black" cx="31.39" cy="-57.6" rx="31.39" ry="18"/>
<text text-anchor="middle" x="31.39" y="-52.55" font-family="Times,serif" font-size="14.00">&quot;aaa&quot;</text>
</g>
<!-- aa&#45;&gt;aaa -->
<g id="edge7" class="edge">
<title>aa&#45;&gt;aaa</title>
<path fill="none" stroke="black" d="M96.39,-114.77C85.07,-104.99 69.68,-91.69 56.71,-80.48"/>
<polygon fill="black" stroke="black" points="59.2,-78 49.34,-74.11 54.62,-83.3 59.2,-78"/>
</g>
<!-- aab -->
<g id="node9" class="node">
<title>aab</title>
<ellipse fill="none" stroke="black" cx="112.39" cy="-57.6" rx="31.9" ry="18"/>
<text text-anchor="middle" x="112.39" y="-52.55" font-family="Times,serif" font-size="14.00">&quot;aab&quot;</text>
</g>
<!-- aa&#45;&gt;aab -->
<g id="edge8" class="edge">
<title>aa&#45;&gt;aab</title>
<path fill="none" stroke="black" d="M112.39,-111.3C112.39,-104.01 112.39,-95.33 112.39,-87.14"/>
<polygon fill="black" stroke="black" points="115.89,-87.22 112.39,-77.22 108.89,-87.22 115.89,-87.22"/>
</g>
<!-- aba -->
<g id="node10" class="node">
<title>aba</title>
<ellipse fill="none" stroke="black" cx="194.39" cy="-57.6" rx="31.9" ry="18"/>
<text text-anchor="middle" x="194.39" y="-52.55" font-family="Times,serif" font-size="14.00">&quot;aba&quot;</text>
</g>
<!-- ab&#45;&gt;aba -->
<g id="edge9" class="edge">
<title>ab&#45;&gt;aba</title>
<path fill="none" stroke="black" d="M225.88,-112.36C221.14,-104.27 215.28,-94.26 209.91,-85.09"/>
<polygon fill="black" stroke="black" points="212.97,-83.4 204.9,-76.54 206.93,-86.94 212.97,-83.4"/>
</g>
<!-- abb -->
<g id="node11" class="node">
<title>abb</title>
<ellipse fill="none" stroke="black" cx="276.39" cy="-57.6" rx="32.41" ry="18"/>
<text text-anchor="middle" x="276.39" y="-52.55" font-family="Times,serif" font-size="14.00">&quot;abb&quot;</text>
</g>
<!-- ab&#45;&gt;abb -->
<g id="edge10" class="edge">
<title>ab&#45;&gt;abb</title>
<path fill="none" stroke="black" d="M244.9,-112.36C249.64,-104.27 255.5,-94.26 260.87,-85.09"/>
<polygon fill="black" stroke="black" points="263.85,-86.94 265.88,-76.54 257.81,-83.4 263.85,-86.94"/>
</g>
<!-- baa -->
<g id="node12" class="node">
<title>baa</title>
<ellipse fill="none" stroke="black" cx="358.39" cy="-57.6" rx="31.9" ry="18"/>
<text text-anchor="middle" x="358.39" y="-52.55" font-family="Times,serif" font-size="14.00">&quot;baa&quot;</text>
</g>
<!-- ba&#45;&gt;baa -->
<g id="edge11" class="edge">
<title>ba&#45;&gt;baa</title>
<path fill="none" stroke="black" d="M389.88,-112.36C385.14,-104.27 379.28,-94.26 373.91,-85.09"/>
<polygon fill="black" stroke="black" points="376.97,-83.4 368.9,-76.54 370.93,-86.94 376.97,-83.4"/>
</g>
<!-- bab -->
<g id="node13" class="node">
<title>bab</title>
<ellipse fill="none" stroke="black" cx="440.39" cy="-57.6" rx="32.41" ry="18"/>
<text text-anchor="middle" x="440.39" y="-52.55" font-family="Times,serif" font-size="14.00">&quot;bab&quot;</text>
</g>
<!-- ba&#45;&gt;bab -->
<g id="edge12" class="edge">
<title>ba&#45;&gt;bab</title>
<path fill="none" stroke="black" d="M408.9,-112.36C413.64,-104.27 419.5,-94.26 424.87,-85.09"/>
<polygon fill="black" stroke="black" points="427.85,-86.94 429.88,-76.54 421.81,-83.4 427.85,-86.94"/>
</g>
<!-- bba -->
<g id="node14" class="node">
<title>bba</title>
<ellipse fill="none" stroke="black" cx="523.39" cy="-57.6" rx="32.41" ry="18"/>
<text text-anchor="middle" x="523.39" y="-52.55" font-family="Times,serif" font-size="14.00">&quot;bba&quot;</text>
</g>
<!-- bb&#45;&gt;bba -->
<g id="edge13" class="edge">
<title>bb&#45;&gt;bba</title>
<path fill="none" stroke="black" d="M523.39,-111.3C523.39,-104.01 523.39,-95.33 523.39,-87.14"/>
<polygon fill="black" stroke="black" points="526.89,-87.22 523.39,-77.22 519.89,-87.22 526.89,-87.22"/>
</g>
<!-- bbb -->
<g id="node15" class="node">
<title>bbb</title>
<ellipse fill="none" stroke="black" cx="606.39" cy="-57.6" rx="32.93" ry="18"/>
<text text-anchor="middle" x="606.39" y="-52.55" font-family="Times,serif" font-size="14.00">&quot;bbb&quot;</text>
</g>
<!-- bb&#45;&gt;bbb -->
<g id="edge14" class="edge">
<title>bb&#45;&gt;bbb</title>
<path fill="none" stroke="black" d="M539.79,-114.77C551.38,-104.99 567.16,-91.69 580.45,-80.48"/>
<polygon fill="black" stroke="black" points="582.62,-83.22 588.01,-74.1 578.11,-77.87 582.62,-83.22"/>
</g>
<!-- aaaa -->
<g id="node16" class="node">
<title>aaaa</title>
<ellipse fill="black" stroke="black" cx="20.39" cy="-1.8" rx="1.8" ry="1.8"/>
</g>
<!-- aaa&#45;&gt;aaaa -->
<g id="edge15" class="edge">
<title>aaa&#45;&gt;aaaa</title>
<path fill="none" stroke="black" d="M27.85,-39.28C26.23,-31.36 24.35,-22.17 22.88,-14.99"/>
<polygon fill="black" stroke="black" points="26.36,-14.54 20.93,-5.44 19.51,-15.94 26.36,-14.54"/>
</g>
<!-- aaab -->
<g id="node17" class="node">
<title>aaab</title>
<ellipse fill="black" stroke="black" cx="42.39" cy="-1.8" rx="1.8" ry="1.8"/>
</g>
<!-- aaa&#45;&gt;aaab -->
<g id="edge16" class="edge">
<title>aaa&#45;&gt;aaab</title>
<path fill="none" stroke="black" d="M34.93,-39.28C36.55,-31.36 38.43,-22.17 39.9,-14.99"/>
<polygon fill="black" stroke="black" points="43.28,-15.94 41.85,-5.44 36.42,-14.54 43.28,-15.94"/>
</g>
<!-- aaba -->
<g id="node18" class="node">
<title>aaba</title>
<ellipse fill="black" stroke="black" cx="101.39" cy="-1.8" rx="1.8" ry="1.8"/>
</g>
<!-- aab&#45;&gt;aaba -->
<g id="edge17" class="edge">
<title>aab&#45;&gt;aaba</title>
<path fill="none" stroke="black" d="M108.85,-39.28C107.23,-31.36 105.35,-22.17 103.88,-14.99"/>
<polygon fill="black" stroke="black" points="107.36,-14.54 101.93,-5.44 100.51,-15.94 107.36,-14.54"/>
</g>
<!-- aabb -->
<g id="node19" class="node">
<title>aabb</title>
<ellipse fill="black" stroke="black" cx="123.39" cy="-1.8" rx="1.8" ry="1.8"/>
</g>
<!-- aab&#45;&gt;aabb -->
<g id="edge18" class="edge">
<title>aab&#45;&gt;aabb</title>
<path fill="none" stroke="black" d="M115.93,-39.28C117.55,-31.36 119.43,-22.17 120.9,-14.99"/>
<polygon fill="black" stroke="black" points="124.28,-15.94 122.85,-5.44 117.42,-14.54 124.28,-15.94"/>
</g>
<!-- abaa -->
<g id="node20" class="node">
<title>abaa</title>
<ellipse fill="black" stroke="black" cx="183.39" cy="-1.8" rx="1.8" ry="1.8"/>
</g>
<!-- aba&#45;&gt;abaa -->
<g id="edge19" class="edge">
<title>aba&#45;&gt;abaa</title>
<path fill="none" stroke="black" d="M190.85,-39.28C189.23,-31.36 187.35,-22.17 185.88,-14.99"/>
<polygon fill="black" stroke="black" points="189.36,-14.54 183.93,-5.44 182.51,-15.94 189.36,-14.54"/>
</g>
<!-- abab -->
<g id="node21" class="node">
<title>abab</title>
<ellipse fill="black" stroke="black" cx="205.39" cy="-1.8" rx="1.8" ry="1.8"/>
</g>
<!-- aba&#45;&gt;abab -->
<g id="edge20" class="edge">
<title>aba&#45;&gt;abab</title>
<path fill="none" stroke="black" d="M197.93,-39.28C199.55,-31.36 201.43,-22.17 202.9,-14.99"/>
<polygon fill="black" stroke="black" points="206.28,-15.94 204.85,-5.44 199.42,-14.54 206.28,-15.94"/>
</g>
<!-- abba -->
<g id="node22" class="node">
<title>abba</title>
<ellipse fill="black" stroke="black" cx="265.39" cy="-1.8" rx="1.8" ry="1.8"/>
</g>
<!-- abb&#45;&gt;abba -->
<g id="edge21" class="edge">
<title>abb&#45;&gt;abba</title>
<path fill="none" stroke="black" d="M272.85,-39.28C271.23,-31.36 269.35,-22.17 267.88,-14.99"/>
<polygon fill="black" stroke="black" points="271.36,-14.54 265.93,-5.44 264.51,-15.94 271.36,-14.54"/>
</g>
<!-- abbb -->
<g id="node23" class="node">
<title>abbb</title>
<ellipse fill="black" stroke="black" cx="287.39" cy="-1.8" rx="1.8" ry="1.8"/>
</g>
<!-- abb&#45;&gt;abbb -->
<g id="edge22" class="edge">
<title>abb&#45;&gt;abbb</title>
<path fill="none" stroke="black" d="M279.93,-39.28C281.55,-31.36 283.43,-22.17 284.9,-14.99"/>
<polygon fill="black" stroke="black" points="288.28,-15.94 286.85,-5.44 281.42,-14.54 288.28,-15.94"/>
</g>
<!-- baaa -->
<g id="node24" class="node">
<title>baaa</title>
<ellipse fill="black" stroke="black" cx="347.39" cy="-1.8" rx="1.8" ry="1.8"/>
</g>
<!-- baa&#45;&gt;baaa -->
<g id="edge23" class="edge">
<title>baa&#45;&gt;baaa</title>
<path fill="none" stroke="black" d="M354.85,-39.28C353.23,-31.36 351.35,-22.17 349.88,-14.99"/>
<polygon fill="black" stroke="black" points="353.36,-14.54 347.93,-5.44 346.51,-15.94 353.36,-14.54"/>
</g>
<!-- baab -->
<g id="node25" class="node">
<title>baab</title>
<ellipse fill="black" stroke="black" cx="369.39" cy="-1.8" rx="1.8" ry="1.8"/>
</g>
<!-- baa&#45;&gt;baab -->
<g id="edge24" class="edge">
<title>baa&#45;&gt;baab</title>
<path fill="none" stroke="black" d="M361.93,-39.28C363.55,-31.36 365.43,-22.17 366.9,-14.99"/>
<polygon fill="black" stroke="black" points="370.28,-15.94 368.85,-5.44 363.42,-14.54 370.28,-15.94"/>
</g>
<!-- baba -->
<g id="node26" class="node">
<title>baba</title>
<ellipse fill="black" stroke="black" cx="429.39" cy="-1.8" rx="1.8" ry="1.8"/>
</g>
<!-- bab&#45;&gt;baba -->
<g id="edge25" class="edge">
<title>bab&#45;&gt;baba</title>
<path fill="none" stroke="black" d="M436.85,-39.28C435.23,-31.36 433.35,-22.17 431.88,-14.99"/>
<polygon fill="black" stroke="black" points="435.36,-14.54 429.93,-5.44 428.51,-15.94 435.36,-14.54"/>
</g>
<!-- babb -->
<g id="node27" class="node">
<title>babb</title>
<ellipse fill="black" stroke="black" cx="451.39" cy="-1.8" rx="1.8" ry="1.8"/>
</g>
<!-- bab&#45;&gt;babb -->
<g id="edge26" class="edge">
<title>bab&#45;&gt;babb</title>
<path fill="none" stroke="black" d="M443.93,-39.28C445.55,-31.36 447.43,-22.17 448.9,-14.99"/>
<polygon fill="black" stroke="black" points="452.28,-15.94 450.85,-5.44 445.42,-14.54 452.28,-15.94"/>
</g>
<!-- bbaa -->
<g id="node28" class="node">
<title>bbaa</title>
<ellipse fill="black" stroke="black" cx="512.39" cy="-1.8" rx="1.8" ry="1.8"/>
</g>
<!-- bba&#45;&gt;bbaa -->
<g id="edge27" class="edge">
<title>bba&#45;&gt;bbaa</title>
<path fill="none" stroke="black" d="M519.85,-39.28C518.23,-31.36 516.35,-22.17 514.88,-14.99"/>
<polygon fill="black" stroke="black" points="518.36,-14.54 512.93,-5.44 511.51,-15.94 518.36,-14.54"/>
</g>
<!-- bbab -->
<g id="node29" class="node">
<title>bbab</title>
<ellipse fill="black" stroke="black" cx="534.39" cy="-1.8" rx="1.8" ry="1.8"/>
</g>
<!-- bba&#45;&gt;bbab -->
<g id="edge28" class="edge">
<title>bba&#45;&gt;bbab</title>
<path fill="none" stroke="black" d="M526.93,-39.28C528.55,-31.36 530.43,-22.17 531.9,-14.99"/>
<polygon fill="black" stroke="black" points="535.28,-15.94 533.85,-5.44 528.42,-14.54 535.28,-15.94"/>
</g>
<!-- bbba -->
<g id="node30" class="node">
<title>bbba</title>
<ellipse fill="black" stroke="black" cx="595.39" cy="-1.8" rx="1.8" ry="1.8"/>
</g>
<!-- bbb&#45;&gt;bbba -->
<g id="edge29" class="edge">
<title>bbb&#45;&gt;bbba</title>
<path fill="none" stroke="black" d="M602.85,-39.28C601.23,-31.36 599.35,-22.17 597.88,-14.99"/>
<polygon fill="black" stroke="black" points="601.36,-14.54 595.93,-5.44 594.51,-15.94 601.36,-14.54"/>
</g>
<!-- bbbb -->
<g id="node31" class="node">
<title>bbbb</title>
<ellipse fill="black" stroke="black" cx="617.39" cy="-1.8" rx="1.8" ry="1.8"/>
</g>
<!-- bbb&#45;&gt;bbbb -->
<g id="edge30" class="edge">
<title>bbb&#45;&gt;bbbb</title>
<path fill="none" stroke="black" d="M609.93,-39.28C611.55,-31.36 613.43,-22.17 614.9,-14.99"/>
<polygon fill="black" stroke="black" points="618.28,-15.94 616.85,-5.44 611.42,-14.54 618.28,-15.94"/>
</g>
</g>
</svg>
