<?xml version="1.0" encoding="UTF-8" standalone="no"?>
<!DOCTYPE svg PUBLIC "-//W3C//DTD SVG 1.1//EN"
 "http://www.w3.org/Graphics/SVG/1.1/DTD/svg11.dtd">
<!-- Generated by graphviz version 9.0.0 (0)
 -->
<!-- Pages: 1 -->
<svg width="327pt" height="81pt"
 viewBox="0.00 0.00 326.78 81.00" xmlns="http://www.w3.org/2000/svg" xmlns:xlink="http://www.w3.org/1999/xlink">
<g id="graph0" class="graph" transform="scale(1 1) rotate(0) translate(4 77)">
<polygon fill="white" stroke="none" points="-4,4 -4,-77 322.78,-77 322.78,4 -4,4"/>
<!-- start -->
<g id="node1" class="node">
<title>start</title>
<ellipse fill="black" stroke="black" cx="1.8" cy="-35" rx="1.8" ry="1.8"/>
</g>
<!-- gosho -->
<g id="node2" class="node">
<title>gosho</title>
<ellipse fill="none" stroke="black" cx="77.53" cy="-35" rx="32.93" ry="18"/>
<ellipse fill="none" stroke="black" cx="77.53" cy="-35" rx="36.93" ry="22"/>
<text text-anchor="middle" x="77.53" y="-29.95" font-family="Times,serif" font-size="14.00">gosho</text>
</g>
<!-- start&#45;&gt;gosho -->
<g id="edge1" class="edge">
<title>start&#45;&gt;gosho</title>
<path fill="none" stroke="black" d="M4.08,-35C7.53,-35 17.54,-35 29.06,-35"/>
<polygon fill="black" stroke="black" points="28.89,-38.5 38.89,-35 28.89,-31.5 28.89,-38.5"/>
</g>
<!-- pesho -->
<g id="node3" class="node">
<title>pesho</title>
<ellipse fill="none" stroke="black" cx="189.62" cy="-55" rx="32.41" ry="18"/>
<text text-anchor="middle" x="189.62" y="-49.95" font-family="Times,serif" font-size="14.00">pesho</text>
</g>
<!-- gosho&#45;&gt;pesho -->
<g id="edge2" class="edge">
<title>gosho&#45;&gt;pesho</title>
<path fill="none" stroke="black" d="M109.21,-46.93C116.71,-49.37 124.78,-51.61 132.45,-53 136.76,-53.78 141.28,-54.35 145.81,-54.75"/>
<polygon fill="black" stroke="black" points="145.25,-58.22 155.45,-55.36 145.69,-51.24 145.25,-58.22"/>
<text text-anchor="middle" x="135.83" y="-56.2" font-family="Times,serif" font-size="14.00">b</text>
</g>
<!-- err -->
<g id="node4" class="node">
<title>err</title>
<ellipse fill="none" stroke="black" cx="291.78" cy="-18" rx="27" ry="18"/>
<text text-anchor="middle" x="291.78" y="-12.95" font-family="Times,serif" font-size="14.00">err</text>
</g>
<!-- gosho&#45;&gt;err -->
<g id="edge4" class="edge">
<title>gosho&#45;&gt;err</title>
<path fill="none" stroke="black" d="M109.45,-23.5C123.76,-18.77 141.12,-13.85 157.2,-11.5 189.62,-6.76 226.89,-9.22 253.81,-12.39"/>
<polygon fill="black" stroke="black" points="253.17,-15.83 263.53,-13.62 254.05,-8.89 253.17,-15.83"/>
<text text-anchor="middle" x="189.62" y="-14.2" font-family="Times,serif" font-size="14.00">a</text>
</g>
<!-- pesho&#45;&gt;gosho -->
<g id="edge3" class="edge">
<title>pesho&#45;&gt;gosho</title>
<path fill="none" stroke="black" d="M166.19,-42.34C157.97,-38.37 148.41,-34.5 139.2,-32.5 134.81,-31.55 130.19,-30.98 125.55,-30.7"/>
<polygon fill="black" stroke="black" points="125.65,-27.2 115.59,-30.55 125.54,-34.2 125.65,-27.2"/>
<text text-anchor="middle" x="135.83" y="-35.2" font-family="Times,serif" font-size="14.00">a</text>
</g>
<!-- pesho&#45;&gt;err -->
<g id="edge5" class="edge">
<title>pesho&#45;&gt;err</title>
<path fill="none" stroke="black" d="M217.2,-45.18C229.42,-40.67 244.06,-35.26 257.06,-30.46"/>
<polygon fill="black" stroke="black" points="257.9,-33.88 266.07,-27.13 255.48,-27.31 257.9,-33.88"/>
<text text-anchor="middle" x="243.41" y="-39.2" font-family="Times,serif" font-size="14.00">b</text>
</g>
<!-- err&#45;&gt;err -->
<g id="edge6" class="edge">
<title>err&#45;&gt;err</title>
<path fill="none" stroke="black" d="M283.15,-35.41C281.53,-45.09 284.41,-54 291.78,-54 296.04,-54 298.8,-51.02 300.06,-46.64"/>
<polygon fill="black" stroke="black" points="303.55,-47.03 300.37,-36.92 296.55,-46.81 303.55,-47.03"/>
<text text-anchor="middle" x="291.78" y="-57.2" font-family="Times,serif" font-size="14.00">a,b</text>
</g>
</g>
</svg>
