<?xml version="1.0" encoding="UTF-8" standalone="no"?>
<!DOCTYPE svg PUBLIC "-//W3C//DTD SVG 1.1//EN"
 "http://www.w3.org/Graphics/SVG/1.1/DTD/svg11.dtd">
<!-- Generated by graphviz version 9.0.0 (0)
 -->
<!-- Pages: 1 -->
<svg width="197pt" height="106pt"
 viewBox="0.00 0.00 197.00 106.30" xmlns="http://www.w3.org/2000/svg" xmlns:xlink="http://www.w3.org/1999/xlink">
<g id="graph0" class="graph" transform="scale(1 1) rotate(0) translate(4 102.3)">
<polygon fill="white" stroke="none" points="-4,4 -4,-102.3 193,-102.3 193,4 -4,4"/>
<!-- 1 -->
<g id="node1" class="node">
<title>1</title>
<ellipse fill="black" stroke="black" cx="1.8" cy="-21.8" rx="1.8" ry="1.8"/>
</g>
<!-- 2 -->
<g id="node2" class="node">
<title>2</title>
<ellipse fill="black" stroke="black" cx="48.15" cy="-41.8" rx="1.8" ry="1.8"/>
</g>
<!-- 1&#45;&gt;2 -->
<g id="edge1" class="edge">
<title>1&#45;&gt;2</title>
<path fill="none" stroke="black" d="M3.9,-22.29C8.25,-24.26 24.62,-31.64 35.92,-36.74"/>
<polygon fill="black" stroke="black" points="34.31,-39.85 44.86,-40.77 37.19,-33.47 34.31,-39.85"/>
<text text-anchor="middle" x="24.98" y="-36" font-family="Times,serif" font-size="14.00">b</text>
</g>
<!-- 13 -->
<g id="node9" class="node">
<title>13</title>
<ellipse fill="black" stroke="black" cx="48.15" cy="-1.8" rx="1.8" ry="1.8"/>
</g>
<!-- 1&#45;&gt;13 -->
<g id="edge8" class="edge">
<title>1&#45;&gt;13</title>
<path fill="none" stroke="black" d="M3.76,-21.01C6.42,-18.84 14.21,-12.74 21.6,-9.3 25.84,-7.32 30.73,-5.74 35.08,-4.54"/>
<polygon fill="black" stroke="black" points="35.71,-7.99 44.66,-2.32 34.13,-1.17 35.71,-7.99"/>
<text text-anchor="middle" x="24.98" y="-12" font-family="Times,serif" font-size="14.00">d</text>
</g>
<!-- 3 -->
<g id="node3" class="node">
<title>3</title>
<ellipse fill="black" stroke="black" cx="94.5" cy="-81.8" rx="1.8" ry="1.8"/>
</g>
<!-- 2&#45;&gt;3 -->
<g id="edge2" class="edge">
<title>2&#45;&gt;3</title>
<path fill="none" stroke="black" d="M50.15,-42.79C52.93,-45.55 60.99,-53.48 67.95,-59.8 73.07,-64.45 78.9,-69.49 83.7,-73.57"/>
<polygon fill="black" stroke="black" points="81.44,-76.25 91.35,-80 85.95,-70.89 81.44,-76.25"/>
<text text-anchor="middle" x="71.33" y="-68" font-family="Times,serif" font-size="14.00">a</text>
</g>
<!-- 6 -->
<g id="node6" class="node">
<title>6</title>
<ellipse fill="black" stroke="black" cx="94.5" cy="-41.8" rx="1.8" ry="1.8"/>
</g>
<!-- 2&#45;&gt;6 -->
<g id="edge5" class="edge">
<title>2&#45;&gt;6</title>
<path fill="none" stroke="black" d="M50.25,-41.8C54.45,-41.8 69.89,-41.8 81.12,-41.8"/>
<polygon fill="black" stroke="black" points="81.08,-45.3 91.08,-41.8 81.08,-38.3 81.08,-45.3"/>
<text text-anchor="middle" x="71.33" y="-45" font-family="Times,serif" font-size="14.00">o</text>
</g>
<!-- 4 -->
<g id="node4" class="node">
<title>4</title>
<ellipse fill="black" stroke="black" cx="140.85" cy="-81.8" rx="1.8" ry="1.8"/>
</g>
<!-- 3&#45;&gt;4 -->
<g id="edge3" class="edge">
<title>3&#45;&gt;4</title>
<path fill="none" stroke="black" d="M96.6,-81.8C100.8,-81.8 116.24,-81.8 127.47,-81.8"/>
<polygon fill="black" stroke="black" points="127.43,-85.3 137.43,-81.8 127.43,-78.3 127.43,-85.3"/>
<text text-anchor="middle" x="117.68" y="-85" font-family="Times,serif" font-size="14.00">b</text>
</g>
<!-- 5 -->
<g id="node5" class="node">
<title>5</title>
<ellipse fill="black" stroke="black" cx="187.2" cy="-81.8" rx="1.8" ry="1.8"/>
</g>
<!-- 4&#45;&gt;5 -->
<g id="edge4" class="edge">
<title>4&#45;&gt;5</title>
<path fill="none" stroke="black" d="M142.95,-81.8C147.15,-81.8 162.59,-81.8 173.82,-81.8"/>
<polygon fill="black" stroke="black" points="173.78,-85.3 183.78,-81.8 173.78,-78.3 173.78,-85.3"/>
<text text-anchor="middle" x="164.03" y="-85" font-family="Times,serif" font-size="14.00">a</text>
</g>
<!-- 7 -->
<g id="node7" class="node">
<title>7</title>
<ellipse fill="black" stroke="black" cx="140.85" cy="-41.8" rx="1.8" ry="1.8"/>
</g>
<!-- 6&#45;&gt;7 -->
<g id="edge6" class="edge">
<title>6&#45;&gt;7</title>
<path fill="none" stroke="black" d="M96.6,-41.8C100.8,-41.8 116.24,-41.8 127.47,-41.8"/>
<polygon fill="black" stroke="black" points="127.43,-45.3 137.43,-41.8 127.43,-38.3 127.43,-45.3"/>
<text text-anchor="middle" x="117.68" y="-45" font-family="Times,serif" font-size="14.00">b</text>
</g>
<!-- 8 -->
<g id="node8" class="node">
<title>8</title>
<ellipse fill="black" stroke="black" cx="187.2" cy="-41.8" rx="1.8" ry="1.8"/>
</g>
<!-- 7&#45;&gt;8 -->
<g id="edge7" class="edge">
<title>7&#45;&gt;8</title>
<path fill="none" stroke="black" d="M142.95,-41.8C147.15,-41.8 162.59,-41.8 173.82,-41.8"/>
<polygon fill="black" stroke="black" points="173.78,-45.3 183.78,-41.8 173.78,-38.3 173.78,-45.3"/>
<text text-anchor="middle" x="164.03" y="-45" font-family="Times,serif" font-size="14.00">o</text>
</g>
<!-- 9 -->
<g id="node10" class="node">
<title>9</title>
<ellipse fill="black" stroke="black" cx="94.5" cy="-1.8" rx="1.8" ry="1.8"/>
</g>
<!-- 13&#45;&gt;9 -->
<g id="edge9" class="edge">
<title>13&#45;&gt;9</title>
<path fill="none" stroke="black" d="M50.25,-1.8C54.45,-1.8 69.89,-1.8 81.12,-1.8"/>
<polygon fill="black" stroke="black" points="81.08,-5.3 91.08,-1.8 81.08,1.7 81.08,-5.3"/>
<text text-anchor="middle" x="71.33" y="-5" font-family="Times,serif" font-size="14.00">a</text>
</g>
</g>
</svg>
